<svg width="270" height="270" viewBox="0 0 270 270" fill="none" xmlns="http://www.w3.org/2000/svg">
<mask id="mask0_936_11613" style="mask-type:alpha" maskUnits="userSpaceOnUse" x="1" y="1" width="268" height="268">
<path d="M134.986 268.835C208.909 268.835 268.835 208.909 268.835 134.986C268.835 61.0634 208.909 1.13721 134.986 1.13721C61.0635 1.13721 1.13726 61.0634 1.13726 134.986C1.13726 208.909 61.0635 268.835 134.986 268.835Z" fill="#D9D9D9"/>
</mask>
<g mask="url(#mask0_936_11613)">
<rect x="0.999939" y="0.999878" width="368" height="368" fill="#FFFAED"/>
<path d="M102.801 124.303C101.004 122.299 98.7668 120.739 96.265 119.745C95.2215 119.305 93.9582 119.608 92.8872 119.36L91.7338 119.003C91.9261 118.372 92.2007 117.603 92.4478 116.751C92.695 115.9 92.6126 114.28 92.8872 112.989C93.1618 111.699 93.9857 110.106 93.9582 108.925C93.9308 107.744 93.1893 106.948 92.695 105.849C92.2007 104.751 92.1458 103.899 91.4592 102.993C90.7727 102.087 89.7017 101.977 88.9327 101.29C88.1638 100.604 87.9716 99.5879 87.2301 99.2309C86.4886 98.8739 85.8295 99.3407 85.1979 99.2309C84.5663 99.121 83.8523 98.4894 83.1383 98.7091L82.6989 98.8464C85.3078 96.1826 87.8617 93.9856 90.2784 92.7224C88.7628 92.2379 87.1565 92.1064 85.5824 92.3379C84.5938 92.4478 83.6051 93.4089 82.6714 93.7385C81.7377 94.068 80.5294 93.8483 79.5682 94.3976C78.6071 94.9468 77.8656 96.4847 77.0417 97.1438C76.2179 97.8028 75.0645 97.7754 74.4603 98.5718C73.8252 99.3004 73.3649 100.165 73.1147 101.098C72.8126 102.691 73.3069 103.46 74.0209 103.79C73.798 103.862 73.5857 103.964 73.3893 104.092C73.055 104.024 72.714 103.997 72.3732 104.009C71.5768 104.009 71.0825 104.229 70.753 104.531C71.0551 103.872 71.2748 103.213 71.4395 102.746C71.7416 101.812 72.181 101.263 72.2359 100.522C72.538 96.3199 68.8856 95.4411 67.4576 98.5718C66.0296 101.702 65.6451 102.911 65.2057 103.185L65.0684 103.24H64.986C65.0135 102.938 64.9585 102.746 64.7663 102.691C64.9311 101.95 66.6337 100.796 67.3203 98.407C67.842 96.6494 67.485 94.6722 66.1119 93.7659C65.5627 93.3815 64.8212 93.8209 63.9699 93.8483C63.1186 93.8758 62.9264 93.354 62.2947 93.5463C61.6631 93.7385 61.4984 94.6447 60.8942 95.0841C60.29 95.5235 59.6859 95.2214 59.1916 95.6883C58.6972 96.1551 58.2853 97.4458 57.7086 98.2422C57.1319 99.0386 56.4454 99.2858 56.0335 100.082C55.6215 100.879 55.5941 101.867 55.3194 102.719C55.0448 103.57 54.5231 104.558 54.4132 105.52C54.3034 106.481 54.6878 107.387 54.6878 108.211C54.7154 108.476 54.7154 108.743 54.6878 109.007C53.7816 108.897 52.793 109.556 51.7769 109.502C50.7608 109.447 49.6074 108.54 48.5089 108.705C47.4104 108.87 46.4493 109.831 45.4332 110.188C44.4171 110.545 43.5109 110.298 42.5772 110.875C40.9282 111.921 39.4855 113.262 38.3206 114.829C42.5497 114.527 47.6576 116.34 53.1225 118.921C53.0366 119.425 52.9079 119.921 52.738 120.404C52.436 121.173 51.7219 121.75 51.5297 122.573C51.3375 123.397 51.6121 124.249 51.5846 125.072C51.5572 125.896 51.2826 126.94 51.4473 127.791L51.5297 128.011C51.242 128.027 50.9567 128.073 50.6784 128.148C49.7172 128.395 48.7561 129.192 47.8773 129.878C46.9985 130.565 46.0923 131.224 45.3508 132.24C44.6093 133.256 44.4995 134.217 44.0326 135.233C43.5658 136.249 42.5772 138.034 42.6046 139.133C42.6321 140.231 43.401 141.302 43.7855 142.675C44.1699 144.049 43.8953 145.147 44.2249 146.136C45.0762 148.497 45.9 150.365 45.9 150.365C46.4895 149.489 47.1607 148.67 47.9048 147.921C48.5089 147.289 49.1405 145.696 50.0468 144.955C50.953 144.213 51.7769 144.598 52.738 143.966C53.2049 143.664 53.864 142.84 54.3857 142.538C54.9075 142.236 55.4293 142.346 56.0335 142.099C56.0884 143.115 56.5552 143.911 56.7475 144.955C56.9397 145.998 56.7749 147.619 57.1319 148.607C57.5884 149.966 58.1675 151.28 58.862 152.534C58.862 152.534 60.0978 151.134 61.8828 149.184C62.4595 148.552 62.9264 147.344 63.5305 146.355C65.7549 150.996 67.183 156.544 68.8581 164.563C68.913 166.677 68.9405 168.709 68.968 170.659H69.9017C69.8742 170.33 69.8742 169.973 69.8742 169.616C69.8947 169.774 69.9315 169.931 69.9841 170.082C69.9614 170.172 69.9521 170.265 69.9566 170.357H70.0115C70.0939 170.687 70.1488 171.016 70.2312 171.346L71.11 171.126L70.9452 170.302H71.7965V170.247H71.9338C71.9566 170.083 71.9658 169.918 71.9613 169.753H72.181V167.83H72.2909C72.9225 161.459 73.5816 152.946 74.2681 146.41C74.6839 146.506 75.0887 146.644 75.4764 146.822C75.7546 146.996 76.0207 147.189 76.2728 147.399C73.6914 153.66 72.3183 161.624 72.7302 171.428L73.6639 171.373C73.252 161.816 74.5702 154.1 77.0143 148.003L77.6184 148.388C78.2501 148.662 78.9915 148.58 79.5682 148.827C80.1449 149.074 80.6667 149.733 81.161 149.925C82.5616 150.447 83.5227 150.227 83.5227 150.227C83.6516 149.313 83.863 148.412 84.1544 147.536C84.3741 146.822 85.0057 146.163 85.1704 145.312C85.3352 144.46 84.9782 143.554 84.8958 142.621C84.8134 141.687 85.0606 140.945 84.8409 140.122C84.6212 139.298 83.8523 138.803 83.4953 138.034L83.4129 137.787C83.7144 137.431 84.0451 137.1 84.4015 136.799C84.429 136.854 84.429 136.908 84.4564 136.963C84.8684 137.815 85.6648 138.364 86.1041 139.188C86.5435 140.012 86.8456 141.11 87.3399 141.879C87.8342 142.648 88.4384 142.923 88.8503 143.499C89.2623 144.076 89.427 144.982 89.7566 145.449C90.7727 146.767 91.6789 147.179 91.6789 147.179C92.1554 146.479 92.708 145.835 93.3266 145.257C93.7935 144.817 94.6173 144.625 95.0842 143.966C95.551 143.307 95.6334 142.346 95.9629 141.495C96.2925 140.643 96.7593 140.149 96.8967 139.298C97.034 138.446 96.5946 137.54 96.622 136.661C96.6495 135.783 97.034 134.712 96.8967 133.778C96.7593 132.844 96.0453 132.46 95.8806 131.828C95.7158 131.196 95.963 130.235 95.6609 129.659C95.3588 129.082 94.5349 128.725 94.123 128.231C93.7111 127.736 93.1344 126.473 92.5028 126.198C90.8551 125.429 89.4545 126.226 88.8503 127.709C88.0265 129.768 88.7405 132.02 88.4384 132.624C88.2462 132.46 88.1089 132.515 87.9716 132.734C87.4498 132.432 87.9441 131.032 88.6306 127.709C88.7305 127.286 88.7491 126.848 88.6856 126.418C93.8758 124.825 98.7366 123.892 102.801 124.303ZM76.6298 131.718C76.3415 131.573 76.0168 131.516 75.6961 131.553C75.1185 131.679 74.5921 131.976 74.1857 132.405C74.083 131.709 73.7773 131.06 73.3069 130.537C73.65 127.496 74.1819 124.478 74.8997 121.502C76.0531 122.464 76.9044 123.699 77.8656 124.468L78.305 124.825C78.5462 125.189 78.8427 125.514 79.1838 125.786L79.1014 125.924C78.8987 126.323 78.7509 126.748 78.662 127.187C77.8931 128.725 77.234 130.263 76.6298 131.718ZM67.54 133.366L67.4301 133.476H67.4026C67.3932 133.498 67.378 133.517 67.3588 133.532C67.3395 133.546 67.3167 133.555 67.2928 133.558C67.2715 133.558 67.2505 133.563 67.2314 133.573C67.2123 133.582 67.1957 133.596 67.183 133.613H67.1555C67.1006 133.311 66.9633 133.146 66.7161 133.146C66.4689 133.146 66.6886 133.064 66.6612 133.009V132.542C66.6832 132.49 66.6926 132.434 66.6886 132.377C66.7161 131.91 66.771 131.334 66.8259 130.73C67.128 131.581 67.3752 132.432 67.6223 133.284L67.5674 133.338L67.54 133.366ZM60.4823 113.401L60.0978 112.522C59.6584 111.699 58.8071 111.589 57.8459 111.122C57.99 111.038 58.1483 110.983 58.3128 110.957C58.862 110.875 59.4662 111.232 60.0978 111.094C60.7294 110.957 61.5807 110.325 62.3497 110.106C63.1186 109.886 63.6129 110.106 64.2445 109.968C64.0733 110.952 64.2276 111.964 64.6839 112.852C64.9271 113.342 65.2119 113.811 65.5352 114.252C64.4093 114.445 63.3658 115.406 63.1186 116.889C62.5144 120.239 62.4595 121.777 61.8828 121.75C61.8279 121.475 61.7181 121.338 61.4984 121.365C61.4434 120.679 62.8989 119.058 62.8989 116.779C62.8989 115.186 62.0476 113.758 60.4823 113.401ZM64.5192 126.226L64.8487 126.693H64.2995C64.2995 126.665 64.272 126.638 64.2445 126.583C64.3496 126.475 64.4417 126.355 64.5192 126.226ZM69.2701 131.361C68.8856 131.773 68.556 132.213 68.2265 132.57C67.9692 131.601 67.6575 130.647 67.2928 129.713C67.128 129.302 66.9633 128.945 66.7985 128.56C66.6337 128.176 66.4689 127.379 66.0296 127.05C65.5902 126.72 65.3705 125.979 65.0409 125.484C65.1336 125.334 65.2443 125.196 65.3705 125.072C66.1669 124.166 67.1006 123.809 67.6223 122.848C68.1441 121.887 68.3364 120.843 68.4462 119.882C69.3039 123.302 69.9641 126.767 70.4235 130.263C69.9932 130.578 69.6055 130.947 69.2701 131.361ZM72.4556 129.878C72.4282 126.446 72.3732 123.178 72.3183 120.102C72.882 120.429 73.4695 120.714 74.0759 120.953C73.3573 123.893 72.8162 126.873 72.4556 129.878ZM71.3846 119.196C71.4395 122.491 71.4945 126.061 71.5219 129.768L71.3297 129.823C70.7039 125.55 69.8421 121.314 68.7483 117.136V116.999C69.1528 117.136 69.5399 117.321 69.9017 117.548C70.4234 117.932 70.8903 118.619 71.3846 119.196ZM55.649 132.075H55.6765C56.1433 131.855 56.6376 131.114 57.1868 130.839C57.7361 130.565 58.505 130.592 59.1092 130.263C59.7133 129.933 60.4548 129.027 61.1963 128.533C61.4763 128.377 61.7705 128.248 62.0751 128.148C61.416 128.917 60.8118 129.878 60.0703 130.812C59.3289 131.746 58.5874 132.322 58.0382 133.531C57.9273 133.748 57.8443 133.979 57.791 134.217C57.1868 134.602 56.6376 134.849 56.1982 134.629C56.1581 134.51 56.0896 134.403 55.9986 134.317C55.9077 134.231 55.7971 134.168 55.6765 134.135C55.4018 133.613 55.5391 132.872 55.649 132.075ZM73.252 135.783C73.4549 136.785 73.8363 137.743 74.378 138.611C74.323 139.023 74.2406 139.462 74.1583 139.929C73.8287 139.517 73.6365 138.227 73.1422 135.947L73.252 135.783ZM88.4384 118.125C87.3125 118.07 86.3238 118.866 85.3078 119.003C84.2917 119.141 83.1383 119.003 82.232 119.086C82.3144 118.125 82.4792 117.136 82.287 116.202C82.0947 115.269 81.5729 114.527 81.2983 113.648C81.161 113.181 81.0237 112.715 80.9139 112.248C82.1771 112.742 82.9735 113.923 83.9896 114.5C85.0057 115.076 86.0492 114.747 86.9005 115.351C87.7519 115.955 88.5208 117.603 89.125 118.152C89.1524 118.152 89.1524 118.18 89.1799 118.207C88.9365 118.152 88.6878 118.125 88.4384 118.125ZM80.6667 104.97C80.5492 105.013 80.4432 105.082 80.3573 105.172C80.2715 105.263 80.2081 105.373 80.1724 105.492C79.4858 105.877 78.5796 105.19 77.4811 104.558C77.948 104.119 78.2775 103.735 78.2775 103.735L80.4196 101.29C80.3097 102.609 81.0786 104.064 80.6667 104.97ZM69.4623 106.618C69.7984 106.245 70.0846 105.829 70.3136 105.382C70.0664 106.865 71.2198 109.062 71.2748 110.078C71.1629 110.098 71.0631 110.161 70.9966 110.253C70.93 110.346 70.9017 110.46 70.9178 110.573C70.1763 110.435 68.7208 108.458 67.2104 107.881C68.0617 107.414 68.8307 107.305 69.4623 106.618ZM64.1347 145.477C64.1622 145.477 64.1622 145.477 64.1622 145.449C65.1508 144.406 66.3042 143.664 67.4301 142.868C68.0343 147.948 68.4462 153.743 68.6659 159.4C67.3477 153.633 66.0021 149.266 64.1347 145.477ZM68.2814 142.236L68.8856 141.769L69.0229 141.961C69.4623 146.685 69.9566 156.956 70.0115 165.524L69.7644 164.398C69.5721 157.175 69.1053 149.047 68.2814 142.236ZM70.753 169.259C70.8903 160.526 70.3685 148.525 69.8742 142.675C70.3226 142.958 70.7453 143.28 71.1375 143.637C71.2473 149.843 71.2473 157.23 71.1375 163.931C71.0825 166 71.0001 168.004 70.8903 169.945C70.8578 169.714 70.8119 169.485 70.753 169.259ZM72.2359 158.191C72.3458 153.935 72.4282 149.596 72.4556 145.257C72.6565 145.504 72.8871 145.725 73.1422 145.916L73.3893 146.053C72.9774 149.733 72.6204 154.017 72.2359 158.191ZM83.1108 136.716C83.004 136.236 82.8282 135.773 82.589 135.343C82.2046 134.794 81.3258 134.739 80.9139 134.3C80.5019 133.86 80.3372 132.872 79.8429 132.57C79.3485 132.267 78.4972 132.46 77.948 132.295L77.4537 132.103C77.948 130.922 78.4972 129.686 79.0739 128.423C79.8703 128.972 81.518 128.642 82.5341 128.368C82.4154 129.057 82.3785 129.757 82.4243 130.455C82.5616 131.608 83.2481 132.432 83.66 133.723C83.8523 134.327 83.9347 135.069 84.0994 135.783L83.1108 136.716Z" fill="url(#paint0_linear_936_11613)"/>
<path d="M209.792 194.221H208.364C208.189 194.221 208.022 194.152 207.898 194.028C207.775 193.905 207.705 193.737 207.705 193.562V184.335H211.687L210.451 193.645C210.431 193.805 210.353 193.952 210.231 194.058C210.11 194.165 209.954 194.223 209.792 194.221Z" fill="#271A38"/>
<path d="M177.195 194.221H175.767C175.678 194.225 175.59 194.211 175.506 194.179C175.423 194.148 175.347 194.1 175.283 194.038C175.219 193.977 175.168 193.903 175.133 193.821C175.098 193.739 175.08 193.651 175.08 193.562V184.335H179.062L177.854 193.645C177.829 193.802 177.749 193.946 177.628 194.052C177.508 194.157 177.355 194.217 177.195 194.221Z" fill="#271A38"/>
<path d="M186.917 131.032H162.119C157.295 131.032 153.386 134.941 153.386 139.764V173.342C153.386 178.165 157.295 182.075 162.119 182.075H186.917C191.74 182.075 195.649 178.165 195.649 173.342V139.764C195.649 134.941 191.74 131.032 186.917 131.032Z" fill="url(#paint1_linear_936_11613)"/>
<path d="M212.401 167.062H160.91C160.076 167.062 159.4 167.738 159.4 168.572V185.184C159.4 186.018 160.076 186.694 160.91 186.694H212.401C213.235 186.694 213.911 186.018 213.911 185.184V168.572C213.911 167.738 213.235 167.062 212.401 167.062Z" fill="#F9AB2D"/>
<path d="M209.216 159.894H164.096C160.137 159.894 156.928 163.099 156.928 167.053C156.928 171.007 160.137 174.213 164.096 174.213H209.216C213.174 174.213 216.383 171.007 216.383 167.053C216.383 163.099 213.174 159.894 209.216 159.894Z" fill="url(#paint2_linear_936_11613)"/>
<path d="M81.1061 162.393H60.0154C60.0154 162.393 59.2465 179.392 65.1782 187.054H75.9433C81.875 179.392 81.1061 162.393 81.1061 162.393Z" fill="#8A76E8"/>
<path d="M170.439 206.332H62.0476C60.3175 206.332 59.0268 204.904 59.4387 203.449L100.357 57.2143C100.524 56.7033 100.853 56.2606 101.294 55.9534C101.735 55.6462 102.264 55.4911 102.801 55.5116H211.22C212.923 55.5116 214.214 56.9671 213.802 58.4226L172.911 204.657C172.636 205.645 171.62 206.332 170.439 206.332Z" fill="#8A76E8"/>
<path d="M169.643 206.332H61.1139C59.3838 206.332 58.0931 204.877 58.4776 203.394L96.7868 55.0997C97.034 54.0836 98.0501 53.3696 99.2035 53.3696H207.76C209.463 53.3696 210.781 54.8251 210.396 56.308L172.087 204.629C171.813 205.645 170.824 206.332 169.643 206.332Z" fill="url(#paint3_linear_936_11613)"/>
<path d="M152.122 70.1763H101.153L103.076 62.7616H154.045L152.122 70.1763Z" fill="#ECE9FB"/>
<path d="M147.372 157.093H78.6895L80.6118 149.678H149.294L147.372 157.093Z" fill="#ECE9FB"/>
<path d="M127.379 191.283H69.8742L71.7691 183.868H129.302L127.379 191.283Z" fill="#ECE9FB"/>
<path d="M131.581 83.8248H97.6381L99.5605 76.4101H133.503L131.581 83.8248Z" fill="#ECE9FB"/>
<path d="M161.762 83.8248H136.14L138.034 76.4101H163.656L161.762 83.8248Z" fill="#ECE9FB"/>
<path d="M188.152 98.4345H179.776L181.699 91.0198H190.075L188.152 98.4345Z" fill="#ECE9FB"/>
<path d="M164.151 191.283H155.775L157.697 183.868H166.073L164.151 191.283Z" fill="#ECE9FB"/>
<path d="M177.58 139.38H83.2756L91.5691 107.25H185.873L177.58 139.38Z" fill="#ECE9FB"/>
<path d="M195.457 70.1763H156.956L158.878 62.7616H197.379L195.457 70.1763Z" fill="#ECE9FB"/>
<path d="M173.46 91.2944H95.6883L95.7707 91.0747H173.57L173.46 91.2944Z" fill="#8A76E8"/>
<path d="M139.545 96.5396H94.3153L94.4251 96.3199H139.655L139.545 96.5396Z" fill="#8A76E8"/>
<path d="M154.1 101.812H92.9696L93.052 101.593H154.21L154.1 101.812Z" fill="#8A76E8"/>
<path d="M154.319 165.386H76.5475L76.6298 165.167H154.429L154.319 165.386Z" fill="#8A76E8"/>
<path d="M134.464 170.632H75.1744L75.2842 170.412H134.574L134.464 170.632Z" fill="#8A76E8"/>
<path d="M115.296 175.904H73.8287L73.9111 175.685H115.406L115.296 175.904Z" fill="#8A76E8"/>
<path d="M184.802 95.6883C184.584 95.6843 184.373 95.6174 184.192 95.4955C184.012 95.3737 183.871 95.2022 183.786 95.0018C183.671 94.5999 183.652 94.1765 183.731 93.766H184.006C183.926 94.1397 183.945 94.5278 184.061 94.8919C184.129 95.0501 184.245 95.1829 184.393 95.2716C184.541 95.3603 184.713 95.4004 184.884 95.3862C185.228 95.2969 185.553 95.1482 185.846 94.9469L192.272 90.855L192.409 91.0747L186.01 95.194C185.682 95.426 185.307 95.5851 184.912 95.6609L184.802 95.6883Z" fill="#271A38"/>
<path d="M161.102 188.29C160.933 188.293 160.765 188.26 160.608 188.194C160.452 188.128 160.312 188.029 160.196 187.905C159.928 187.595 159.757 187.213 159.702 186.807L159.977 186.752C160.021 187.104 160.164 187.438 160.388 187.713C160.516 187.856 160.684 187.957 160.871 188.001C161.058 188.045 161.254 188.031 161.432 187.96C161.768 187.831 162.062 187.613 162.283 187.328L167.501 182.028L167.693 182.248L162.476 187.521C162.22 187.824 161.901 188.068 161.542 188.235C161.4 188.28 161.251 188.299 161.102 188.29Z" fill="#271A38"/>
<path d="M214.159 206.332H52.1613V206.969H214.159V206.332Z" fill="#8A76E8"/>
<path d="M140.836 133.476C140.836 133.476 141.659 134.849 142.566 135.316C143.472 135.783 144.323 134.657 144.735 133.558C145.147 132.46 141.879 132.652 140.836 133.476Z" fill="#CC8269"/>
<path d="M147.674 131.663H147.646C147.237 131.663 146.905 131.995 146.905 132.405V134.006C146.905 134.415 147.237 134.747 147.646 134.747H147.674C148.083 134.747 148.415 134.415 148.415 134.006V132.405C148.415 131.995 148.083 131.663 147.674 131.663Z" fill="#CC8269"/>
<path d="M146.3 131.663H146.273C145.863 131.663 145.532 131.995 145.532 132.405V134.006C145.532 134.415 145.863 134.747 146.273 134.747H146.3C146.71 134.747 147.042 134.415 147.042 134.006V132.405C147.042 131.995 146.71 131.663 146.3 131.663Z" fill="#CC8269"/>
<path d="M144.955 131.663H144.927C144.518 131.663 144.186 131.995 144.186 132.405V134.006C144.186 134.415 144.518 134.747 144.927 134.747H144.955C145.364 134.747 145.696 134.415 145.696 134.006V132.405C145.696 131.995 145.364 131.663 144.955 131.663Z" fill="#CC8269"/>
<path d="M143.582 131.663H143.554C143.145 131.663 142.813 131.995 142.813 132.405V134.006C142.813 134.415 143.145 134.747 143.554 134.747H143.582C143.991 134.747 144.323 134.415 144.323 134.006V132.405C144.323 131.995 143.991 131.663 143.582 131.663Z" fill="#CC8269"/>
<path d="M144.792 152.366L149.086 151.983L154.586 213.609C154.626 214.059 154.486 214.506 154.197 214.853C153.907 215.199 153.491 215.416 153.042 215.457L152.166 215.535C151.944 215.555 151.719 215.53 151.506 215.464C151.292 215.397 151.094 215.288 150.923 215.145C150.751 215.002 150.61 214.826 150.506 214.628C150.403 214.429 150.339 214.213 150.319 213.99L144.819 152.364L144.792 152.366Z" fill="#271A38"/>
<path d="M143.039 149.786L150.151 149.146L155.693 210.717C155.733 211.166 155.592 211.613 155.302 211.96C155.011 212.306 154.594 212.524 154.142 212.564L150.435 212.898C149.984 212.939 149.534 212.799 149.187 212.51C148.839 212.221 148.62 211.806 148.58 211.357L143.039 149.786Z" fill="#8A76E8"/>
<path d="M148.113 143.499L144.131 143.856L143.087 149.761L150.173 149.129L148.113 143.499Z" fill="#F9AB2D"/>
<path d="M148.113 143.499L144.131 143.856L144.158 138.144L147.097 137.897L148.113 143.499Z" fill="#ECE9FB"/>
<path d="M143.225 187.164C143.121 187.17 143.02 187.198 142.927 187.245C142.835 187.292 142.753 187.357 142.686 187.437C142.619 187.516 142.569 187.609 142.539 187.708C142.509 187.807 142.499 187.912 142.511 188.015L143.911 203.833C144.296 208.144 146.74 209.929 148.827 209.737L148.443 205.343C148.443 205.343 145.696 206.002 145.449 203.311L144.076 187.878C144.069 187.774 144.042 187.673 143.995 187.58C143.948 187.488 143.882 187.405 143.803 187.339C143.723 187.272 143.631 187.222 143.532 187.192C143.432 187.162 143.328 187.152 143.225 187.164Z" fill="#F9AB2D"/>
<path d="M145.147 132.872L144.131 138.144L147.097 137.897L145.147 132.872Z" fill="#271A38"/>
<path d="M112.33 141.852L107.36 209.765L111.479 210.836L125.677 150.475C125.677 150.475 117.301 133.366 112.33 141.852Z" fill="url(#paint4_radial_936_11613)"/>
<path d="M100.934 145.422L89.6467 209.765L93.766 210.836L114.335 151.985C114.335 151.985 105.904 136.936 100.934 145.422Z" fill="url(#paint5_radial_936_11613)"/>
<path d="M115.598 213.197C115.186 212.017 113.072 210.918 112.22 209.518C112.138 209.353 112.028 209.215 111.946 209.078C111.891 207.87 111.287 206.909 109.254 206.909C105.877 206.909 107.003 210.808 107.222 212.703C107.321 213.661 107.358 214.624 107.332 215.587H110.545L110.71 214.845H115.049C115.598 214.845 116.01 214.351 115.598 213.197Z" fill="#271A38"/>
<path d="M94.5075 209.518C94.3702 209.27 94.2329 209.106 94.123 208.913C94.0132 207.815 93.3541 206.964 91.4317 206.964C88.0539 206.964 89.2348 210.836 89.4545 212.703C89.5846 213.659 89.6397 214.623 89.6193 215.587H92.8323L92.9696 214.845H97.336C97.8853 214.845 98.2972 214.351 97.8853 213.197C97.4733 212.044 95.3588 210.918 94.5075 209.518Z" fill="#271A38"/>
<path d="M106.646 123.123C106.646 123.123 102.856 128.148 101.4 136.304C99.9449 144.46 95.8806 154.704 92.9971 161.404C94.5349 160.938 98.3247 161.981 103.103 163.382C107.881 164.782 113.95 161.789 118.289 162.75C122.628 163.711 124.99 161.652 124.99 161.652C124.99 161.652 128.093 145.449 125.677 135.947C123.48 127.269 122.903 122.683 122.903 122.683C122.903 122.683 112.632 118.454 106.646 123.123Z" fill="#F2E93F"/>
<mask id="mask1_936_11613" style="mask-type:alpha" maskUnits="userSpaceOnUse" x="92" y="120" width="35" height="44">
<path d="M106.646 123.123C106.646 123.123 102.856 128.148 101.4 136.304C99.945 144.46 95.8806 154.704 92.9971 161.404C94.535 160.938 98.3247 161.981 103.103 163.382C107.881 164.782 113.95 161.789 118.289 162.75C122.628 163.711 124.99 161.652 124.99 161.652C124.99 161.652 128.093 145.449 125.677 135.947C123.48 127.269 122.903 122.683 122.903 122.683C122.903 122.683 112.632 118.454 106.646 123.123Z" fill="#F2E93F"/>
</mask>
<g mask="url(#mask1_936_11613)">
<g opacity="0.5">
<path d="M106.948 148.47C106.316 148.827 105.904 149.211 105.63 149.156C105.355 149.102 104.586 148.635 104.586 148.305C104.586 147.976 104.998 147.097 105.684 147.262C106.371 147.426 106.371 147.893 106.948 148.47Z" fill="#F9AB2D"/>
<path d="M95.4137 123.754C95.7707 123.123 95.551 122.079 96.6495 122.134C96.9516 122.134 97.391 122.848 97.4459 123.287C97.5008 123.727 96.7594 124.084 95.4137 123.754Z" fill="#F9AB2D"/>
<path d="M117.218 120.514C116.971 120.651 116.367 121.118 116.257 121.008C115.881 120.668 115.606 120.231 115.461 119.745C115.406 119.58 115.845 119.058 116.038 119.058C116.724 119.058 117.191 119.443 117.218 120.514Z" fill="#F9AB2D"/>
<path d="M105.3 141.604C104.311 141.55 103.872 141.165 103.954 140.478C104.037 139.792 104.421 139.874 104.668 139.572C105.025 139.957 105.492 140.286 105.712 140.726C105.932 141.165 105.41 141.357 105.3 141.604Z" fill="#F9AB2D"/>
<path d="M100.439 146.548C101.812 146.602 102.389 146.959 102.197 147.619C102.005 148.278 101.483 148.442 100.879 148.278C99.7527 147.948 100.741 147.152 100.439 146.548Z" fill="#F9AB2D"/>
<path d="M125.704 139.765C126.198 139.353 126.473 139.078 126.775 138.803C127.05 139.16 127.517 139.517 127.572 139.902C127.626 140.286 127.16 140.588 126.912 140.945L125.704 139.765Z" fill="#F9AB2D"/>
<path d="M98.9014 134.135C98.4071 133.531 97.9402 133.174 97.8029 132.734C97.6656 132.295 97.748 131.746 98.4895 131.773C99.2309 131.801 99.3408 132.542 99.533 133.064C99.7252 133.586 99.2309 133.613 98.9014 134.135Z" fill="#F9AB2D"/>
<path d="M96.0179 153.66C96.8143 153.523 97.8304 154.347 97.6931 155.033C97.6382 155.253 97.2262 155.61 97.1164 155.555C97.0065 155.5 96.2651 155.143 96.0728 154.814C95.8806 154.484 96.0179 154.045 96.0179 153.66Z" fill="#F9AB2D"/>
<path d="M101.153 123.754C101.508 124.216 101.829 124.702 102.114 125.21C102.142 125.292 101.648 125.814 101.4 125.814C101.153 125.814 100.302 125.484 100.384 124.77C100.455 124.434 100.575 124.11 100.741 123.809L101.153 123.754Z" fill="#F9AB2D"/>
<path d="M105.739 136.14L106.481 135.398C106.839 135.76 107.161 136.155 107.442 136.579C107.497 136.661 107.058 137.211 106.838 137.211C106.618 137.211 105.712 137.293 105.739 136.14Z" fill="#F9AB2D"/>
<path d="M107.332 132.405C107.552 131.938 106.728 131.279 107.634 130.977C107.909 130.894 108.458 130.922 108.513 131.032C108.568 131.142 108.705 131.965 108.815 132.432L107.469 132.652L107.332 132.405Z" fill="#F9AB2D"/>
<path d="M112.742 152.232C113.374 151.244 113.813 151.024 114.362 151.573C114.48 151.722 114.559 151.898 114.593 152.085C114.626 152.271 114.613 152.464 114.555 152.644C114.28 153.193 113.484 153.001 112.742 152.232Z" fill="#F9AB2D"/>
<path d="M115.598 147.371C115.378 147.783 115.214 148.278 114.884 148.552C114.555 148.827 114.115 148.552 113.841 148.388C113.735 148.287 113.656 148.161 113.613 148.022C113.57 147.882 113.563 147.734 113.593 147.591C113.676 147.371 114.033 147.207 114.307 147.152C114.644 147.101 114.985 147.092 115.324 147.124L115.598 147.371Z" fill="#F9AB2D"/>
<path d="M113.731 160.553C113.182 160.965 112.852 161.35 112.522 161.35C112.193 161.35 111.644 160.965 111.616 160.718C111.601 160.577 111.619 160.434 111.668 160.302C111.718 160.169 111.798 160.05 111.902 159.953C112.007 159.857 112.132 159.787 112.268 159.748C112.404 159.709 112.548 159.703 112.687 159.729C112.962 159.784 113.209 160.141 113.731 160.553Z" fill="#F9AB2D"/>
<path d="M103.927 130.757C104.27 131.18 104.565 131.641 104.806 132.13C104.861 132.267 104.339 132.844 104.092 132.844C103.845 132.844 103.131 132.679 103.24 132.02C103.315 131.611 103.416 131.208 103.542 130.812L103.927 130.757Z" fill="#F9AB2D"/>
<path d="M116.34 135.014C115.818 135.371 115.571 135.7 115.324 135.728C115.182 135.743 115.04 135.729 114.905 135.684C114.77 135.64 114.646 135.567 114.542 135.471C114.438 135.374 114.355 135.257 114.301 135.126C114.246 134.995 114.22 134.853 114.225 134.711C114.225 134.437 114.774 133.915 114.884 133.943C114.994 133.97 115.708 134.519 116.34 135.014Z" fill="#F9AB2D"/>
<path d="M97.034 129.576C96.4573 129.988 96.2101 130.29 95.8806 130.345C95.551 130.4 94.7272 129.659 94.892 129.109C94.967 128.962 95.0809 128.838 95.2213 128.751C95.3617 128.664 95.5232 128.617 95.6884 128.615C96.0728 128.752 96.4024 129.137 97.034 129.576Z" fill="#F9AB2D"/>
<path d="M95.7433 150.2C95.2764 150.694 95.0293 151.216 94.6997 151.244C94.5676 151.266 94.4321 151.253 94.3064 151.206C94.1808 151.16 94.0695 151.082 93.9835 150.979C93.8975 150.876 93.8398 150.753 93.8161 150.621C93.7924 150.489 93.8035 150.354 93.8484 150.227C93.9033 149.925 94.3976 149.568 94.7547 149.459C95.1117 149.349 95.2764 149.843 95.7433 150.2Z" fill="#F9AB2D"/>
<path d="M100.082 145.092C99.1211 144.817 98.5444 144.515 98.6817 143.692C98.7616 143.476 98.8533 143.265 98.9563 143.06C99.3682 143.28 99.9449 143.389 100.165 143.746C100.384 144.103 100.137 144.598 100.082 145.092Z" fill="#F9AB2D"/>
<path d="M114.28 140.369C113.154 140.259 112.522 139.819 112.797 139.27C113.072 138.721 113.566 138.693 113.978 138.666C114.39 138.639 114.61 139.38 114.28 140.369Z" fill="#F9AB2D"/>
<path d="M113.484 121.832L114.582 123.013C114.335 123.26 113.978 123.727 113.813 123.672C113.648 123.617 112.962 123.15 112.55 122.875L113.484 121.832Z" fill="#F9AB2D"/>
<path d="M97.8304 159.674C97.4459 159.125 97.1438 158.796 96.9791 158.384C96.8143 157.972 97.3635 157.834 97.5558 157.834C97.748 157.834 98.8465 157.944 98.8465 158.713C98.8465 158.96 98.3247 159.207 97.8304 159.674Z" fill="#F9AB2D"/>
<path d="M113.099 126.061C113.539 126.693 113.923 127.05 114.033 127.462C114.143 127.874 113.593 128.121 113.319 128.176C113.193 128.206 113.061 128.204 112.935 128.17C112.81 128.136 112.695 128.071 112.602 127.98C112.509 127.89 112.44 127.777 112.402 127.653C112.364 127.528 112.358 127.396 112.385 127.269C112.44 126.967 112.742 126.665 113.099 126.061Z" fill="#F9AB2D"/>
<path d="M93.821 132.377C93.9857 132.295 94.2603 132.02 94.5624 131.993C95.3039 131.883 95.4137 132.542 95.4412 133.009C95.411 133.171 95.3357 133.321 95.224 133.443C95.1123 133.564 94.9687 133.652 94.8096 133.695C94.2054 133.723 93.7935 133.338 93.821 132.377Z" fill="#F9AB2D"/>
<path d="M108.705 158.741L107.717 157.56L108.76 156.736C109.035 157.065 109.392 157.395 109.502 157.779C109.612 158.164 109.117 158.274 108.705 158.741Z" fill="#F9AB2D"/>
<path d="M93.052 126.171L94.0406 125.072C94.3153 125.457 94.6997 125.814 94.8645 126.226C95.0293 126.638 94.5899 126.775 94.4251 127.05L93.052 126.171Z" fill="#F9AB2D"/>
<path d="M93.3541 122.299C92.8323 122.656 92.5028 123.013 92.3106 122.958C92.1183 122.903 91.5691 122.518 91.1846 122.271C91.4318 121.942 91.7613 121.31 91.8986 121.365C92.0359 121.42 92.7225 121.859 93.3541 122.299Z" fill="#F9AB2D"/>
<path d="M96.1277 139.737C96.677 140.396 97.0889 140.863 97.4459 141.357C97.357 141.581 97.1916 141.766 96.9791 141.879C96.4298 141.961 95.5236 141.247 95.606 140.781C95.6884 140.314 95.8806 140.231 96.1277 139.737Z" fill="#F9AB2D"/>
<path d="M99.2309 149.266C98.6817 149.596 98.4345 149.925 98.2148 149.898C97.9952 149.87 97.0065 149.678 97.1164 148.909C97.1438 148.662 97.6107 148.223 97.7205 148.25C98.2468 148.554 98.7515 148.893 99.2309 149.266Z" fill="#F9AB2D"/>
<path d="M92.7774 160.938C91.6789 160.993 91.7339 160.306 91.7064 159.784C91.6789 159.262 92.0634 159.372 92.2556 159.153C92.6407 159.541 92.9899 159.964 93.2992 160.416C93.3541 160.471 92.8873 160.855 92.7774 160.938Z" fill="#F9AB2D"/>
<path d="M111.149 141.412C111.608 141.629 112.041 141.896 112.44 142.209C112.55 142.291 112.44 142.923 112.303 142.978C112.165 143.032 111.204 143.252 111.122 143.115C111.04 142.978 110.902 142.154 110.82 141.659L111.149 141.412Z" fill="#F9AB2D"/>
<path d="M111.671 129.823C112.049 130.343 112.398 130.884 112.715 131.444C112.593 131.682 112.387 131.868 112.138 131.965C111.561 132.02 110.902 131.306 111.012 130.757C111.122 130.208 111.314 130.29 111.671 129.823Z" fill="#F9AB2D"/>
<path d="M103.24 122.134C102.417 122.326 101.812 122.161 101.565 121.447C101.483 121.2 101.757 120.733 102.005 120.486C102.252 120.239 102.664 120.624 102.801 120.843C102.938 121.063 103.103 121.667 103.24 122.134Z" fill="#F9AB2D"/>
<path d="M93.1069 141.302C93.7386 141.742 94.3427 142.181 93.9033 142.978C93.8484 143.115 92.9971 143.06 92.7225 142.84C92.0085 142.236 92.5302 141.769 93.1069 141.302Z" fill="#F9AB2D"/>
<path d="M97.1438 126.912C97.6656 126.61 97.8853 126.336 98.1325 126.336C98.3796 126.336 99.2035 126.638 99.1485 127.242C99.0936 127.846 98.5444 128.066 98.4345 128.011C98.3247 127.956 97.7205 127.434 97.1438 126.912Z" fill="#F9AB2D"/>
<path d="M120.294 142.456C120.651 143.17 120.926 143.554 121.036 143.966C121.145 144.378 120.514 144.543 120.404 144.488C120.002 144.312 119.666 144.014 119.443 143.637C119.36 143.472 119.855 143.032 120.294 142.456Z" fill="#F9AB2D"/>
<path d="M107.634 127.269C107.991 127.022 108.348 126.583 108.678 126.61C109.007 126.638 109.282 127.132 109.584 127.407C109.282 127.626 109.007 128.011 108.678 128.066C108.348 128.121 107.991 127.791 107.662 127.626L107.634 127.269Z" fill="#F9AB2D"/>
<path d="M103.048 143.225C103.426 143.662 103.766 144.13 104.064 144.625C104.119 144.708 103.762 145.202 103.542 145.257C103.323 145.312 102.334 144.625 102.417 144.131C102.499 143.637 102.719 143.692 103.048 143.225Z" fill="#F9AB2D"/>
<path d="M113.593 163.464C114.009 163.786 114.395 164.144 114.747 164.535C114.829 164.672 114.555 165.249 114.527 165.249C113.978 165.167 113.429 165.002 112.742 164.837L113.593 163.464Z" fill="#F9AB2D"/>
<path d="M106.261 122.903C106.536 123.37 106.838 123.837 107.085 124.331C107.112 124.413 106.701 124.825 106.563 124.798C105.959 124.688 105.382 124.441 105.437 123.699C105.465 123.425 105.739 123.205 105.904 122.93L106.261 122.903Z" fill="#F9AB2D"/>
<path d="M118.317 124.496C117.932 123.974 117.575 123.672 117.521 123.315C117.466 122.958 117.603 122.299 118.18 122.491C118.756 122.683 118.866 123.15 119.086 123.562C119.306 123.974 118.729 124.029 118.317 124.496Z" fill="#F9AB2D"/>
<path d="M105.437 128.78C104.806 128.478 103.954 128.423 104.119 127.489C104.147 127.297 104.806 127.022 105.135 127.05C105.465 127.077 105.822 128.011 105.437 128.78Z" fill="#F9AB2D"/>
<path d="M107.964 139.105C108.952 139.215 109.584 139.71 109.364 140.259C109.262 140.404 109.127 140.522 108.969 140.604C108.811 140.685 108.636 140.727 108.458 140.726C107.854 140.671 107.662 140.039 107.964 139.105Z" fill="#F9AB2D"/>
<path d="M110.737 147.536C110.326 147.014 109.859 146.63 109.941 146.465C110.023 146.3 110.49 145.724 110.82 145.696C111.149 145.669 111.534 146.163 111.589 146.493C111.644 146.822 111.149 147.042 110.737 147.536Z" fill="#F9AB2D"/>
<path d="M100.824 141.687L99.6154 140.698C99.9724 140.451 100.329 140.039 100.741 139.957C101.153 139.874 101.345 140.451 101.455 140.781C101.565 141.11 101.126 141.275 100.824 141.687Z" fill="#F9AB2D"/>
<path d="M123.699 152.562C123.287 152.04 122.821 151.628 122.876 151.463C122.93 151.298 123.48 150.887 123.809 150.612C124.029 150.941 124.386 151.216 124.441 151.546C124.496 151.875 124.084 152.067 123.699 152.562Z" fill="#F9AB2D"/>
<path d="M98.5993 121.31L97.6931 120.074C98.0501 119.827 98.3796 119.47 98.7641 119.388C99.1485 119.305 99.3682 119.91 99.3682 120.212C99.3682 120.514 98.9838 120.788 98.5993 121.31Z" fill="#F9AB2D"/>
<path d="M113.154 157.642L112.33 156.626C112.687 156.406 113.044 155.994 113.401 155.967C113.758 155.94 113.95 156.461 114.253 156.763L113.154 157.642Z" fill="#F9AB2D"/>
<path d="M101.291 150.145C101.738 150.529 102.152 150.952 102.526 151.408C102.581 151.491 102.142 151.903 101.922 152.15C101.593 151.848 101.181 151.601 100.961 151.216C100.741 150.832 101.098 150.694 101.291 150.145Z" fill="#F9AB2D"/>
<path d="M112.33 136.304C111.808 136.579 111.561 136.826 111.342 136.799C111.194 136.788 111.049 136.749 110.916 136.682C110.784 136.616 110.666 136.524 110.569 136.411C110.472 136.299 110.398 136.169 110.351 136.028C110.305 135.887 110.287 135.738 110.298 135.59C110.298 135.426 110.737 135.123 110.792 135.178C111.324 135.527 111.837 135.903 112.33 136.304Z" fill="#F9AB2D"/>
<path d="M98.6542 162.036C98.1599 162.393 97.8029 162.75 97.6656 162.668C97.2885 162.499 96.979 162.209 96.7868 161.844C96.7319 161.734 97.2811 161.075 97.4459 161.102C97.6107 161.13 98.105 161.597 98.6542 162.036Z" fill="#F9AB2D"/>
<path d="M123.809 132.24C123.37 132.569 123.04 132.927 122.958 132.872C122.544 132.568 122.166 132.218 121.832 131.828C121.977 131.595 122.163 131.391 122.381 131.224C122.884 131.524 123.361 131.864 123.809 132.24Z" fill="#F9AB2D"/>
<path d="M94.9194 147.262C94.2878 147.481 93.9033 147.756 93.6287 147.673C93.3541 147.591 93.1344 147.152 92.8873 146.85C93.2168 146.602 93.5738 146.163 93.8484 146.191C94.123 146.218 94.4251 146.74 94.9194 147.262Z" fill="#F9AB2D"/>
<path d="M97.7755 137.073L98.6817 136.249C99.005 136.571 99.299 136.92 99.5605 137.293C99.6154 137.375 99.0662 137.98 98.9289 137.925C98.7915 137.87 98.2698 137.458 97.7755 137.073Z" fill="#F9AB2D"/>
<path d="M127.736 120.788C127.379 121.09 127.132 121.42 126.912 121.42C126.144 121.42 126.198 120.733 126.226 120.239C126.253 119.745 126.583 119.717 126.803 119.443L127.736 120.788Z" fill="#F9AB2D"/>
<path d="M96.0454 158.356C95.606 158.741 95.249 159.125 95.194 159.098C95.1391 159.07 94.48 158.466 94.0956 158.136C94.3427 157.917 94.6448 157.45 94.8096 157.505C94.9744 157.56 95.4961 157.972 96.0454 158.356Z" fill="#F9AB2D"/>
<path d="M121.31 120.953C121.805 121.42 122.326 121.695 122.326 121.969C122.326 122.244 121.887 122.601 121.612 122.903C121.338 122.656 120.926 122.464 120.843 122.161C120.761 121.859 121.063 121.53 121.31 120.953Z" fill="#F9AB2D"/>
<path d="M105.465 163.629L104.476 162.778L105.382 161.789C105.63 162.146 105.959 162.448 106.124 162.832C106.289 163.217 105.767 163.272 105.465 163.629Z" fill="#F9AB2D"/>
<path d="M98.2423 150.859C98.6817 151.408 99.0662 151.683 99.1485 152.04C99.2309 152.397 98.5444 152.781 98.462 152.726C98.0924 152.522 97.7879 152.217 97.5832 151.848C97.5008 151.738 97.8853 151.381 98.2423 150.859Z" fill="#F9AB2D"/>
<path d="M104.229 155.582C103.899 155.143 103.542 154.868 103.542 154.566C103.542 154.264 103.872 153.962 104.064 153.633L105.163 154.731L104.229 155.582Z" fill="#F9AB2D"/>
<path d="M106.508 151.134L107.579 152.644C107.387 152.781 107.058 153.083 107.003 153.056C106.591 152.749 106.221 152.389 105.904 151.985C105.877 151.93 106.179 151.573 106.508 151.134Z" fill="#F9AB2D"/>
<path d="M116.807 130.922C116.617 131.152 116.415 131.372 116.202 131.581C115.821 131.268 115.471 130.919 115.159 130.537C115.104 130.455 115.571 130.043 115.79 129.768L116.807 130.922Z" fill="#F9AB2D"/>
<path d="M127.654 127.709L126.72 128.505C126.468 128.073 126.247 127.624 126.061 127.16C126.006 127.022 126.391 126.775 126.583 126.583C126.885 126.885 127.215 127.214 127.654 127.709Z" fill="#F9AB2D"/>
<path d="M96.0179 137.43C95.7707 137.568 95.4412 137.925 95.3039 137.842C94.9098 137.587 94.5499 137.282 94.2329 136.936C94.4526 136.744 94.7547 136.359 94.9194 136.387C95.0842 136.414 95.6884 136.826 96.0454 137.046L96.0179 137.43Z" fill="#F9AB2D"/>
<path d="M93.6013 153.441V154.978C93.2992 154.951 92.9147 155.033 92.7225 154.896C92.5303 154.759 92.2831 154.264 92.3655 154.1C92.4479 153.935 92.9696 153.523 93.2992 153.248L93.6013 153.441Z" fill="#F9AB2D"/>
<path d="M125.292 122.436C125.704 122.875 126.089 123.15 126.116 123.425C126.144 123.699 125.649 124.194 125.539 124.166C125.43 124.139 124.853 123.699 124.496 123.452L125.292 122.436Z" fill="#F9AB2D"/>
<path d="M109.804 148.635C110.216 149.156 110.518 149.459 110.628 149.816C110.737 150.173 110.243 150.365 110.023 150.365C109.804 150.365 108.952 150.255 109.007 149.596C109.062 148.937 109.392 149.101 109.804 148.635Z" fill="#F9AB2D"/>
<path d="M102.307 134.959C102.688 135.403 103.029 135.881 103.323 136.387C103.378 136.442 102.911 136.908 102.691 136.908C102.56 136.921 102.428 136.902 102.306 136.853C102.184 136.804 102.075 136.727 101.989 136.627C101.903 136.528 101.842 136.409 101.812 136.281C101.781 136.153 101.781 136.02 101.812 135.892C101.84 135.645 102.059 135.426 102.307 134.959Z" fill="#F9AB2D"/>
<path d="M107.387 143.582C107.689 144.076 108.019 144.351 107.991 144.598C107.964 144.845 107.634 145.174 107.415 145.477C107.112 145.174 106.728 144.927 106.563 144.57C106.398 144.213 106.975 144.076 107.387 143.582Z" fill="#F9AB2D"/>
<path d="M104.531 157.505C104.888 158.082 105.19 158.411 105.245 158.768C105.3 159.125 104.696 159.455 104.613 159.427C104.531 159.4 103.872 158.933 103.79 158.603C103.707 158.274 104.174 158.027 104.531 157.505Z" fill="#F9AB2D"/>
<path d="M110.765 154.072C110.71 154.127 110.353 154.484 110.243 154.429C109.91 154.169 109.614 153.864 109.364 153.523C109.557 153.358 109.749 153.029 109.969 153.001C110.188 152.974 110.93 153.084 110.765 154.072Z" fill="#F9AB2D"/>
<path d="M101.181 161.075C101.543 161.467 101.882 161.879 102.197 162.311C102.224 162.338 101.73 162.887 101.648 162.832C101.236 162.623 100.865 162.345 100.549 162.009C100.522 161.954 100.851 161.542 101.181 161.075Z" fill="#F9AB2D"/>
<path d="M116.285 126.473C116.367 126.391 116.724 126.088 116.779 126.116C117.13 126.463 117.46 126.829 117.768 127.214C117.575 127.379 117.356 127.709 117.164 127.681C116.971 127.654 116.147 127.379 116.285 126.473Z" fill="#F9AB2D"/>
<path d="M127.407 161.075L126.308 159.729C126.638 159.537 126.967 159.18 127.242 159.207C127.517 159.235 127.901 160.059 127.407 161.075Z" fill="#F9AB2D"/>
<path d="M121.063 138.254C121.448 138.831 121.777 139.16 121.859 139.545C121.942 139.929 121.338 140.231 121.228 140.204C120.868 140.044 120.576 139.762 120.404 139.407C120.349 139.188 120.734 138.803 121.063 138.254Z" fill="#F9AB2D"/>
<path d="M101.291 155.528C101.016 155.61 100.631 155.83 100.549 155.747C100.155 155.413 99.8202 155.014 99.5605 154.566C99.5056 154.457 99.8626 154.127 100.027 153.907L101.098 155.033L101.291 155.528Z" fill="#F9AB2D"/>
<path d="M117.301 152.974C117.685 153.605 117.96 153.962 118.07 154.374C118.18 154.786 117.74 154.923 117.548 154.951C116.807 155.006 116.669 154.429 116.669 153.852C116.669 153.276 116.944 153.44 117.301 152.974Z" fill="#F9AB2D"/>
<path d="M118.454 141.028C118.07 141.385 117.713 141.824 117.63 141.769C117.28 141.521 116.966 141.225 116.697 140.89C116.944 140.643 117.218 140.176 117.493 140.204C117.768 140.231 118.042 140.643 118.454 141.028Z" fill="#F9AB2D"/>
<path d="M122.134 125.622C122.381 125.429 122.711 125.072 122.93 125.127C123.15 125.182 123.535 125.567 123.837 125.814C123.617 126.061 123.37 126.5 123.15 126.5C122.93 126.5 122.464 126.143 122.134 125.979V125.622Z" fill="#F9AB2D"/>
<path d="M121.228 158.356L119.333 158.466C119.498 157.917 119.525 157.203 119.772 157.148C120.541 156.901 120.843 157.56 121.228 158.356Z" fill="#F9AB2D"/>
<path d="M97.7755 145.339C97.2811 145.696 96.9516 146.053 96.8967 145.998C96.5241 145.726 96.175 145.423 95.8531 145.092C96.0454 144.9 96.2925 144.543 96.4024 144.57C96.5122 144.598 97.1713 144.982 97.7755 145.339Z" fill="#F9AB2D"/>
<path d="M122.821 146.905C122.436 146.355 122.107 146.026 122.052 145.696C121.997 145.367 122.573 145.065 122.793 145.092C122.961 145.156 123.11 145.26 123.23 145.393C123.349 145.527 123.435 145.687 123.48 145.861C123.507 146.081 123.15 146.41 122.821 146.905Z" fill="#F9AB2D"/>
<path d="M120.239 135.316C120.624 134.904 120.926 134.547 120.953 134.547C121.337 134.794 121.688 135.089 121.997 135.426C122.052 135.48 121.612 136.085 121.557 136.057C121.094 135.855 120.653 135.606 120.239 135.316Z" fill="#F9AB2D"/>
<path d="M120.706 147.371C121.036 147.921 121.365 148.25 121.365 148.552C121.365 148.854 121.036 149.129 120.843 149.431C120.569 149.129 120.184 148.854 120.102 148.497C120.02 148.14 120.377 147.921 120.706 147.371Z" fill="#F9AB2D"/>
<path d="M116.504 162.64C116.202 162.173 115.845 161.816 115.928 161.597C116.01 161.377 116.422 161.13 116.697 160.883C116.944 161.202 117.147 161.553 117.301 161.926C117.328 162.036 116.889 162.283 116.504 162.64Z" fill="#F9AB2D"/>
<path d="M126.363 148.305C125.924 148.635 125.677 149.019 125.375 149.047C125.073 149.074 124.688 148.552 124.743 148.387C124.798 148.223 125.182 147.728 125.43 147.399L126.363 148.305Z" fill="#F9AB2D"/>
<path d="M126.034 130.345C126.344 130.833 126.628 131.338 126.885 131.855C126.912 131.938 126.555 132.185 126.363 132.322C126.033 132.007 125.739 131.657 125.484 131.279C125.43 131.169 125.732 130.839 126.034 130.345Z" fill="#F9AB2D"/>
<path d="M120.431 153.166C119.553 153.056 119.058 152.699 119.086 151.903C119.146 151.791 119.233 151.695 119.338 151.623C119.443 151.552 119.564 151.506 119.69 151.491C120.514 151.738 120.486 152.397 120.431 153.166Z" fill="#F9AB2D"/>
<path d="M109.007 162.585C108.678 162.228 108.266 161.926 108.321 161.761C108.376 161.597 108.815 161.02 108.98 161.047C109.145 161.075 109.584 161.514 109.886 161.789L109.007 162.585Z" fill="#F9AB2D"/>
<path d="M121.255 161.789C120.761 162.146 120.431 162.503 120.267 162.448C119.915 162.299 119.631 162.025 119.47 161.679C119.415 161.569 119.855 160.992 119.965 161.047C120.074 161.102 120.679 161.459 121.255 161.789Z" fill="#F9AB2D"/>
<path d="M115.543 158.439C115.681 157.615 116.092 157.203 116.889 157.422C117.026 157.477 117.218 157.862 117.164 157.972C116.834 158.631 116.34 158.933 115.543 158.439Z" fill="#F9AB2D"/>
<path d="M126.912 143.774C127.572 144.076 128.121 144.378 127.846 145.12C127.791 145.257 127.16 145.339 126.94 145.202C126.308 144.817 126.555 144.296 126.912 143.774Z" fill="#F9AB2D"/>
<path d="M116.23 143.994C115.818 144.323 115.516 144.735 115.378 144.68C115.212 144.62 115.059 144.525 114.932 144.402C114.804 144.279 114.704 144.131 114.637 143.966C114.582 143.801 115.021 143.252 115.159 143.28C115.296 143.307 115.763 143.637 116.23 143.994Z" fill="#F9AB2D"/>
<path d="M123.26 138.748C123.351 138.371 123.499 138.01 123.699 137.677C123.782 137.568 124.413 137.732 124.551 137.952C124.688 138.172 124.688 138.721 124.496 138.858C124.304 138.996 123.837 138.996 123.48 139.051L123.26 138.748Z" fill="#F9AB2D"/>
<path d="M122.958 155.665L121.557 155.418C121.777 155.061 121.969 154.704 122.162 154.347L123.205 155.143L122.958 155.665Z" fill="#F9AB2D"/>
<path d="M108.733 119.8C108.98 120.157 109.337 120.459 109.309 120.679C109.282 120.898 108.87 121.173 108.65 121.42L107.854 120.624L108.733 119.8Z" fill="#F9AB2D"/>
<path d="M111.012 123.672C110.545 124.029 110.243 124.413 110.078 124.358C109.914 124.304 109.529 123.919 109.255 123.672C109.474 123.425 109.694 123.013 109.914 122.985C110.133 122.958 110.49 123.342 111.012 123.672Z" fill="#F9AB2D"/>
<path d="M125.787 135.316C125.43 135.508 125.155 135.755 125.073 135.7C124.99 135.645 124.441 135.123 124.111 134.849L124.798 134.19L125.787 135.316Z" fill="#F9AB2D"/>
<path d="M119.635 126.885C120.377 126.665 120.953 126.555 121.31 127.269C121.315 127.393 121.293 127.515 121.245 127.629C121.198 127.743 121.126 127.845 121.036 127.928C120.294 128.093 119.937 127.599 119.635 126.885Z" fill="#F9AB2D"/>
<path d="M95.7707 163.272C95.249 163.601 94.9743 163.931 94.7547 163.876C94.4222 163.753 94.1414 163.52 93.9583 163.217C93.9033 163.107 94.3153 162.503 94.3977 162.53C94.8732 162.743 95.3321 162.991 95.7707 163.272Z" fill="#F9AB2D"/>
<path d="M101.895 130.098C101.593 130.455 101.291 130.867 101.236 130.812C100.885 130.617 100.562 130.377 100.274 130.098C100.494 129.851 100.741 129.384 100.961 129.384C101.181 129.384 101.51 129.768 101.895 130.098Z" fill="#F9AB2D"/>
<path d="M119.855 129.439C120.13 129.785 120.378 130.153 120.596 130.537C120.624 130.62 120.102 131.059 120.02 131.004C119.689 130.752 119.377 130.477 119.086 130.18L119.855 129.439Z" fill="#F9AB2D"/>
<path d="M116.587 149.651C117.164 149.816 117.85 149.761 117.74 150.584C117.713 150.777 117.136 151.106 116.916 151.024C116.697 150.941 116.285 150.31 116.587 149.651Z" fill="#F9AB2D"/>
<path d="M126.144 154.374C126.446 154.896 126.748 155.198 126.748 155.473C126.748 155.747 126.446 155.994 126.281 156.269C126.006 155.994 125.594 155.775 125.512 155.473C125.43 155.171 125.814 154.896 126.144 154.374Z" fill="#F9AB2D"/>
<path d="M123.397 143.005C123.178 142.401 123.068 141.824 123.727 141.549C123.864 141.495 124.331 141.879 124.359 142.099C124.496 142.758 124.166 143.087 123.397 143.005Z" fill="#F9AB2D"/>
<path d="M124.523 129.686C123.837 129.713 123.205 129.851 123.233 128.972C123.272 128.851 123.336 128.739 123.421 128.645C123.506 128.55 123.611 128.474 123.727 128.423C124.551 128.423 124.523 129.027 124.523 129.686Z" fill="#F9AB2D"/>
<path d="M101.95 159.482C101.071 159.262 100.741 158.796 100.851 158.054C100.851 157.972 101.345 157.834 101.428 157.917C101.51 157.999 102.279 158.768 101.95 159.482Z" fill="#F9AB2D"/>
<path d="M119.031 137.403C118.564 137.677 118.289 137.979 118.152 137.925C117.845 137.783 117.587 137.554 117.411 137.265C117.383 137.211 117.768 136.689 117.878 136.716C117.987 136.744 118.509 137.073 119.031 137.403Z" fill="#F9AB2D"/>
<path d="M124.963 162.942C124.441 163.162 124.111 163.409 123.974 163.327C123.656 163.105 123.394 162.814 123.205 162.475C123.178 162.448 123.59 161.981 123.672 162.036C124.124 162.306 124.555 162.609 124.963 162.942Z" fill="#F9AB2D"/>
<path d="M118.18 132.377C118.399 132.685 118.584 133.017 118.729 133.366C118.756 133.531 118.509 133.805 118.399 133.998C118.101 133.755 117.841 133.468 117.63 133.146C117.548 132.981 117.768 132.679 117.85 132.432L118.18 132.377Z" fill="#F9AB2D"/>
<path d="M124.633 159.043C124.111 159.29 123.809 159.51 123.507 159.51C123.205 159.51 123.095 159.153 122.903 158.96C123.15 158.741 123.397 158.411 123.645 158.356C123.892 158.301 124.166 158.686 124.633 159.043Z" fill="#F9AB2D"/>
<path d="M118.454 146.795C118.152 147.152 117.878 147.536 117.795 147.509C117.713 147.481 117.164 147.152 117.081 146.877C116.999 146.602 117.383 146.383 117.548 146.136L118.454 146.795Z" fill="#F9AB2D"/>
</g>
</g>
<path d="M105.053 123.233L90.5804 112.879C90.2216 112.65 89.8212 112.494 89.402 112.42C88.9829 112.345 88.5532 112.354 88.1375 112.446C87.7218 112.538 87.3282 112.711 86.9793 112.955C86.6305 113.199 86.3331 113.509 86.1042 113.868C85.8714 114.226 85.7122 114.626 85.6359 115.046C85.5596 115.466 85.5677 115.897 85.6597 116.313C85.7517 116.73 85.9259 117.124 86.1719 117.473C86.418 117.822 86.731 118.118 87.0928 118.344L100.851 126.363C101.373 127.05 101.922 127.571 103.378 127.654C104.833 127.736 105.08 127.269 105.932 127.324C106.783 127.379 108.376 127.407 108.568 126.803C108.76 126.198 108.486 125.759 107.744 125.567C106.426 125.237 106.261 125.127 106.014 124.578C105.768 124.081 105.443 123.627 105.053 123.233Z" fill="url(#paint6_radial_936_11613)"/>
<path d="M103.91 105.767C105.238 104.567 105.342 102.518 104.142 101.19C102.942 99.8617 100.893 99.7579 99.5648 100.958L86.2878 112.954C84.9599 114.154 84.8561 116.203 86.056 117.531C87.2558 118.859 89.305 118.963 90.6328 117.763L103.91 105.767Z" fill="#CC8269"/>
<path d="M105.053 123.233C104.201 120.953 102.362 116.01 101.181 112.522C99.6703 107.881 99.176 102.197 100.137 100.824C101.098 99.4506 106.865 98.7091 111.396 98.7091C111.396 98.7091 119.278 98.819 121.805 99.2583C124.331 99.6977 122.573 103.79 124.578 109.364C126.583 114.939 124.633 116.477 123.947 118.152C123.26 119.827 123.15 124.99 123.15 124.99C123.15 124.99 119.223 127.022 113.539 127.022C110.161 127.022 109.09 126.665 108.595 126.253C108.222 125.84 107.718 125.569 107.167 125.484C106.124 125.265 106.041 124.963 105.849 124.496C105.641 124.041 105.373 123.616 105.053 123.233Z" fill="url(#paint7_radial_936_11613)"/>
<path d="M122.381 99.4506C122.381 99.4506 124.551 100.219 127.132 104.915C129.714 109.611 143.829 129.604 143.829 129.604C143.829 129.604 144.653 130.482 145.669 130.427C147.426 130.345 148.058 131.004 148.25 131.361C148.366 131.601 148.43 131.862 148.438 132.128C148.446 132.394 148.398 132.658 148.297 132.905C148.196 133.151 148.044 133.373 147.851 133.556C147.659 133.74 147.43 133.881 147.179 133.97C145.916 134.437 144.378 134.135 144.158 133.888C143.939 133.641 142.264 135.535 139.408 132.075C136.552 128.615 123.782 110.737 123.782 110.737C123.782 110.737 120.212 104.915 122.381 99.4506Z" fill="#CC8269"/>
<path d="M111.946 100.796C110.325 100.796 109.035 99.7801 109.035 98.7366V94.1505H114.829V98.7366C114.829 99.7801 113.539 100.796 111.946 100.796Z" fill="#CC8269"/>
<path d="M112.193 95.7707C115.408 95.7707 118.015 93.1641 118.015 89.9488C118.015 86.7334 115.408 84.1269 112.193 84.1269C108.978 84.1269 106.371 86.7334 106.371 89.9488C106.371 93.1641 108.978 95.7707 112.193 95.7707Z" fill="#CC8269"/>
<path d="M114.307 89.7565C114.417 89.7291 118.454 88.6581 118.454 84.3466C118.454 80.0351 110.325 74.4878 103.378 80.6117C97.2537 85.9943 101.318 97.5832 101.4 97.5557C101.483 97.5282 117.63 97.5557 117.63 97.5557L114.307 89.7565Z" fill="url(#paint8_radial_936_11613)"/>
<path d="M114.637 92.2281C115.38 92.2281 115.983 91.6257 115.983 90.8825C115.983 90.1393 115.38 89.5369 114.637 89.5369C113.894 89.5369 113.291 90.1393 113.291 90.8825C113.291 91.6257 113.894 92.2281 114.637 92.2281Z" fill="#CC8269"/>
</g>
<path d="M134.986 268.835C208.909 268.835 268.835 208.909 268.835 134.986C268.835 61.0634 208.909 1.13721 134.986 1.13721C61.0635 1.13721 1.13726 61.0634 1.13726 134.986C1.13726 208.909 61.0635 268.835 134.986 268.835Z" stroke="#E9E9E9" stroke-miterlimit="10"/>
<defs>
<linearGradient id="paint0_linear_936_11613" x1="38.3261" y1="131.809" x2="102.795" y2="131.809" gradientUnits="userSpaceOnUse">
<stop stop-color="#95B553"/>
<stop offset="1" stop-color="#5A9460"/>
</linearGradient>
<linearGradient id="paint1_linear_936_11613" x1="153.383" y1="156.544" x2="195.647" y2="156.544" gradientUnits="userSpaceOnUse">
<stop stop-color="#FF7B6D"/>
<stop offset="1" stop-color="#F9AB2D"/>
</linearGradient>
<linearGradient id="paint2_linear_936_11613" x1="186.639" y1="180.784" x2="186.639" y2="166.466" gradientUnits="userSpaceOnUse">
<stop stop-color="#FF7B6D"/>
<stop offset="1" stop-color="#F9AB2D"/>
</linearGradient>
<linearGradient id="paint3_linear_936_11613" x1="77.5377" y1="75.1798" x2="192.489" y2="184.384" gradientUnits="userSpaceOnUse">
<stop offset="0.62" stop-color="white"/>
<stop offset="1" stop-color="#ECE9FB"/>
</linearGradient>
<radialGradient id="paint4_radial_936_11613" cx="0" cy="0" r="1" gradientUnits="userSpaceOnUse" gradientTransform="translate(128.533 162.926) scale(16.8369 36.8727)">
<stop stop-color="#AD6247"/>
<stop offset="1" stop-color="#CC8269"/>
</radialGradient>
<radialGradient id="paint5_radial_936_11613" cx="0" cy="0" r="1" gradientUnits="userSpaceOnUse" gradientTransform="translate(112.677 165.569) rotate(1.9) scale(13.3574 38.8701)">
<stop stop-color="#AD6247"/>
<stop offset="1" stop-color="#CC8269"/>
</radialGradient>
<radialGradient id="paint6_radial_936_11613" cx="0" cy="0" r="1" gradientUnits="userSpaceOnUse" gradientTransform="translate(94.719 114.072) rotate(23.3) scale(9.7819 4.49968)">
<stop stop-color="#AD6247"/>
<stop offset="1" stop-color="#CC8269"/>
</radialGradient>
<radialGradient id="paint7_radial_936_11613" cx="0" cy="0" r="1" gradientUnits="userSpaceOnUse" gradientTransform="translate(143.606 125.188) scale(27.0169 27.017)">
<stop stop-color="#271A38"/>
<stop offset="1" stop-color="#8A76E8"/>
</radialGradient>
<radialGradient id="paint8_radial_936_11613" cx="0" cy="0" r="1" gradientUnits="userSpaceOnUse" gradientTransform="translate(107.101 65.1452) scale(22.0601 22.0601)">
<stop stop-color="#8A76E8"/>
<stop offset="1" stop-color="#271A38"/>
</radialGradient>
</defs>
</svg>
