<?xml version="1.0" standalone="no"?>
<!DOCTYPE svg PUBLIC "-//W3C//DTD SVG 20010904//EN"
 "http://www.w3.org/TR/2001/REC-SVG-20010904/DTD/svg10.dtd">
<svg version="1.0" xmlns="http://www.w3.org/2000/svg"
 width="674.000000pt" height="440.000000pt" viewBox="0 0 674.000000 440.000000"
 preserveAspectRatio="xMidYMid meet">

<g transform="translate(0.000000,440.000000) scale(0.100000,-0.100000)"
fill="#000000" stroke="none">
<path d="M2080 4189 c-142 -14 -320 -54 -470 -106 -89 -30 -288 -125 -347
-165 -23 -15 -44 -28 -47 -28 -18 0 -190 -133 -292 -225 -124 -113 -314 -352
-380 -479 -44 -85 -94 -187 -114 -236 -12 -30 -26 -64 -30 -75 -10 -23 -57
-183 -70 -235 -5 -19 -13 -53 -18 -75 -10 -40 -25 -163 -41 -324 -9 -102 12
-378 39 -498 27 -121 68 -267 90 -318 4 -11 18 -45 30 -75 125 -309 363 -624
625 -827 69 -53 154 -113 161 -113 3 0 24 -13 47 -29 95 -64 329 -165 482
-207 180 -48 415 -78 570 -72 78 3 80 4 80 28 l0 25 -155 2 c-102 2 -194 10
-270 23 -63 12 -128 23 -145 26 -16 3 -39 9 -50 13 -11 5 -38 14 -60 20 -204
62 -417 172 -600 310 -85 65 -256 232 -332 326 -191 235 -329 515 -396 805
-47 204 -51 238 -51 470 0 232 4 267 51 470 69 296 202 566 396 805 76 94 247
261 332 326 183 138 396 248 600 310 22 6 49 15 60 20 11 4 34 10 50 13 17 3
82 14 145 26 76 13 168 21 270 23 l155 2 0 25 0 25 -115 1 c-63 1 -153 -2
-200 -7z"/>
<path d="M1865 2978 c-128 -276 -586 -1251 -592 -1260 -2 -5 16 -8 40 -8 43 0
45 1 64 48 11 26 82 185 158 355 l138 307 286 -2 286 -3 82 -250 c45 -137 96
-296 113 -352 l32 -103 39 0 c21 0 39 1 39 3 0 1 -110 333 -244 737 l-243 735
-49 3 -50 3 -99 -213z m246 -163 c56 -165 104 -306 106 -312 4 -10 -50 -13
-251 -13 -141 0 -256 4 -256 8 0 5 48 109 106 233 58 123 124 262 145 308 22
46 41 82 44 80 2 -3 50 -140 106 -304z"/>
<path d="M4121 3088 c-53 -71 -71 -124 -71 -212 0 -103 37 -195 101 -251 19
-17 18 -13 -7 25 -53 79 -67 121 -72 206 -5 98 13 163 65 230 19 26 32 48 30
51 -3 2 -24 -20 -46 -49z"/>
<path d="M4700 3074 c17 -15 33 -24 36 -21 6 6 -45 47 -58 47 -5 0 5 -12 22
-26z"/>
<path d="M4670 2833 c41 -34 80 -115 80 -166 0 -21 -10 -57 -21 -80 l-21 -42
31 29 c27 26 31 36 31 82 0 69 -37 148 -84 180 -47 32 -58 30 -16 -3z"/>
<path d="M3412 2531 c-8 -5 -16 -35 -19 -70 l-6 -61 -38 0 c-32 0 -39 -3 -39
-20 0 -17 7 -20 41 -20 l42 0 -6 -59 c-4 -33 -10 -165 -13 -293 l-7 -234 30
-33 c24 -28 38 -34 81 -39 28 -2 67 -1 86 2 29 6 36 11 36 30 0 22 -2 22 -50
12 -67 -13 -100 -1 -124 47 -17 36 -18 51 -7 270 6 128 11 247 11 265 l0 32
95 0 c88 0 95 1 95 20 0 19 -7 20 -94 20 l-95 0 6 70 c6 69 2 78 -25 61z"/>
<path d="M2912 2400 c-158 -33 -257 -224 -223 -430 21 -132 90 -223 189 -251
89 -26 275 -8 289 27 9 24 -2 26 -58 10 -67 -20 -164 -20 -220 -1 -99 35 -159
137 -162 275 l-2 75 246 3 c204 2 248 5 253 17 7 20 -12 132 -29 164 -45 87
-168 135 -283 111z m179 -53 c49 -26 83 -82 94 -154 l7 -43 -231 0 -230 0 14
45 c17 58 36 87 80 122 47 38 89 51 161 52 45 1 72 -5 105 -22z"/>
<path d="M3951 2400 c-65 -14 -122 -52 -155 -104 -16 -25 -31 -46 -33 -46 -3
0 -2 34 2 75 7 72 6 75 -14 75 -11 0 -21 -3 -21 -7 -2 -59 -21 -495 -26 -575
-6 -104 -6 -108 14 -108 19 0 20 8 26 138 13 318 33 402 108 466 51 44 111 60
197 54 76 -6 122 -26 155 -71 19 -26 21 -42 21 -160 0 -73 -4 -198 -8 -279 -7
-145 -7 -148 13 -148 17 0 20 6 20 48 0 26 5 138 10 250 13 273 0 326 -93 370
-50 24 -154 34 -216 22z"/>
<path d="M2210 1290 c0 -29 1 -30 50 -30 l50 0 0 -320 0 -320 30 0 30 0 0 320
0 320 45 0 c43 0 45 1 45 30 l0 30 -125 0 -125 0 0 -30z"/>
<path d="M3820 970 l0 -350 25 0 25 0 1 263 1 262 18 -55 c11 -30 49 -148 85
-262 45 -141 71 -208 81 -208 12 0 14 55 14 350 0 343 0 350 -20 350 -19 0
-20 -7 -20 -257 0 -145 -4 -253 -9 -247 -4 5 -44 120 -87 257 -64 203 -81 247
-96 247 -17 0 -18 -19 -18 -350z"/>
<path d="M5520 1200 c0 -33 3 -40 20 -40 17 0 20 7 20 40 0 33 -3 40 -20 40
-17 0 -20 -7 -20 -40z"/>
<path d="M5068 1188 c-8 -13 -23 -38 -32 -55 -27 -54 4 -41 59 22 l47 55 -30
0 c-20 0 -35 -8 -44 -22z"/>
<path d="M2530 1041 c-13 -26 -13 -376 0 -402 9 -16 22 -19 94 -19 102 0 116
11 116 88 0 49 -2 52 -25 52 -23 0 -25 -4 -25 -45 l0 -45 -55 0 -55 0 0 80 0
79 78 3 77 3 3 99 c2 64 -1 103 -9 112 -8 10 -36 14 -100 14 -77 0 -90 -2 -99
-19z m160 -96 l0 -65 -55 0 -55 0 0 65 0 65 55 0 55 0 0 -65z"/>
<path d="M2820 839 l0 -219 30 0 30 0 0 189 c0 187 0 189 23 195 12 3 32 6 45
6 20 0 22 -5 22 -50 0 -47 2 -50 25 -50 24 0 25 2 25 64 0 41 -5 68 -12 73 -7
4 -52 8 -100 9 l-88 1 0 -218z"/>
<path d="M3080 839 l0 -219 30 0 30 0 0 189 c0 187 0 189 23 195 12 3 32 6 45
6 20 0 22 -5 22 -50 0 -47 2 -50 25 -50 24 0 25 2 25 64 0 41 -5 68 -12 73 -7
4 -52 8 -100 9 l-88 1 0 -218z"/>
<path d="M3370 1050 c-13 -8 -15 -42 -15 -210 0 -168 2 -202 15 -210 8 -5 50
-10 92 -10 68 0 79 3 92 22 9 13 16 43 16 70 0 45 -2 48 -25 48 -23 0 -25 -4
-25 -45 l0 -45 -60 0 -60 0 0 80 0 80 73 0 c43 0 78 5 85 12 19 19 16 183 -4
202 -18 18 -158 23 -184 6z m150 -105 l0 -65 -60 0 -60 0 0 65 0 65 60 0 60 0
0 -65z"/>
<path d="M4170 850 c0 -245 -4 -236 102 -221 36 5 64 5 66 0 2 -5 12 -9 23 -9
18 0 19 10 19 220 0 213 -1 220 -20 220 -19 0 -20 -7 -20 -189 l0 -188 -46 -7
c-92 -12 -84 -31 -84 189 0 188 -1 195 -20 195 -19 0 -20 -7 -20 -210z"/>
<path d="M4480 840 c0 -213 1 -220 20 -220 19 0 20 7 20 190 l0 190 44 0 c24
0 51 3 60 6 14 5 16 -15 16 -190 l0 -196 25 0 25 0 0 190 0 190 44 0 c24 0 51
3 60 6 14 5 16 -15 16 -190 l0 -196 26 0 25 0 -3 205 c-4 247 -2 242 -100 225
-49 -9 -72 -9 -87 0 -16 8 -37 8 -83 0 -45 -8 -63 -9 -66 -1 -2 6 -12 11 -23
11 -18 0 -19 -10 -19 -220z"/>
<path d="M4959 1043 c-20 -23 -25 -357 -6 -393 11 -23 19 -25 89 -28 95 -4
108 7 108 84 0 47 -2 54 -20 54 -17 0 -20 -7 -20 -45 l0 -45 -60 0 -60 0 0 80
0 80 74 0 c88 0 86 -2 86 115 0 108 -7 115 -104 115 -56 0 -77 -4 -87 -17z
m151 -98 l0 -65 -60 0 -60 0 0 65 0 65 60 0 60 0 0 -65z"/>
<path d="M5250 840 c0 -213 1 -220 20 -220 19 0 20 7 20 189 0 187 0 189 23
195 12 3 37 6 55 6 32 0 32 0 32 -50 0 -43 3 -50 20 -50 18 0 20 7 20 59 0 89
-27 104 -132 75 -10 -3 -18 -1 -18 5 0 6 -9 11 -20 11 -19 0 -20 -7 -20 -220z"/>
<path d="M5520 840 c0 -213 1 -220 20 -220 19 0 20 7 20 220 0 213 -1 220 -20
220 -19 0 -20 -7 -20 -220z"/>
<path d="M5683 1033 c-22 -21 -23 -29 -23 -190 1 -116 4 -173 13 -184 20 -26
53 -39 101 -39 l46 0 0 -85 c0 -84 0 -85 25 -85 l25 0 0 303 0 303 -82 0 c-72
-1 -86 -4 -105 -23z m135 -195 l2 -168 -48 0 c-26 0 -53 5 -60 12 -17 17 -17
299 0 316 8 8 32 12 58 10 l45 -3 3 -167z"/>
<path d="M5960 850 c0 -245 -4 -236 102 -221 36 5 64 5 66 0 2 -5 12 -9 23 -9
18 0 19 10 19 220 0 213 -1 220 -20 220 -19 0 -20 -7 -20 -189 l0 -188 -46 -7
c-92 -12 -84 -31 -84 189 0 188 -1 195 -20 195 -19 0 -20 -7 -20 -210z"/>
<path d="M6282 1048 c-9 -9 -12 -69 -12 -208 0 -139 3 -199 12 -208 15 -15
142 -16 169 -2 15 9 19 22 19 70 0 53 -2 60 -20 60 -17 0 -20 -7 -20 -45 l0
-45 -60 0 -60 0 0 80 0 79 78 3 77 3 3 99 c2 64 -1 103 -9 112 -15 18 -159 20
-177 2z m148 -103 l0 -65 -60 0 -60 0 0 65 0 65 60 0 60 0 0 -65z"/>
</g>
</svg>
